<mxfile host="Electron" modified="2023-05-29T15:34:21.454Z" agent="Mozilla/5.0 (Windows NT 10.0; Win64; x64) AppleWebKit/537.36 (KHTML, like Gecko) draw.io/21.1.2 Chrome/106.0.5249.199 Electron/21.4.3 Safari/537.36" etag="_jrHhYOyFQ_QhXXejZzc" version="21.1.2" type="device">
  <diagram name="Page-1" id="6MuODcf2RaKPFUCV3nhy">
    <mxGraphModel dx="1036" dy="654" grid="1" gridSize="10" guides="1" tooltips="1" connect="1" arrows="1" fold="1" page="1" pageScale="1" pageWidth="827" pageHeight="1169" math="0" shadow="0">
      <root>
        <mxCell id="0" />
        <mxCell id="1" parent="0" />
        <mxCell id="gcQWtQWxWVgKkvATZPal-1" value="&lt;font style=&quot;font-size: 18px;&quot; face=&quot;Times New Roman&quot;&gt;Jira&lt;br&gt;Cloud&lt;/font&gt;" style="whiteSpace=wrap;html=1;aspect=fixed;" parent="1" vertex="1">
          <mxGeometry x="80" y="160" width="120" height="120" as="geometry" />
        </mxCell>
        <mxCell id="gcQWtQWxWVgKkvATZPal-2" value="&lt;font style=&quot;font-size: 18px;&quot; face=&quot;Times New Roman&quot;&gt;Jira&lt;br&gt;Connector&lt;br&gt;E&lt;/font&gt;" style="whiteSpace=wrap;html=1;aspect=fixed;" parent="1" vertex="1">
          <mxGeometry x="280" y="160" width="120" height="120" as="geometry" />
        </mxCell>
        <mxCell id="gcQWtQWxWVgKkvATZPal-3" value="&lt;font style=&quot;font-size: 18px;&quot; face=&quot;Times New Roman&quot;&gt;Back-End&lt;br&gt;&lt;br&gt;T&lt;/font&gt;" style="whiteSpace=wrap;html=1;aspect=fixed;" parent="1" vertex="1">
          <mxGeometry x="480" y="160" width="120" height="120" as="geometry" />
        </mxCell>
        <mxCell id="gcQWtQWxWVgKkvATZPal-4" value="&lt;font style=&quot;font-size: 18px;&quot; face=&quot;Times New Roman&quot;&gt;Front-End&lt;br&gt;&lt;br&gt;L&lt;/font&gt;" style="whiteSpace=wrap;html=1;aspect=fixed;" parent="1" vertex="1">
          <mxGeometry x="680" y="160" width="120" height="120" as="geometry" />
        </mxCell>
        <mxCell id="gcQWtQWxWVgKkvATZPal-6" value="" style="swimlane;startSize=0;" parent="1" vertex="1">
          <mxGeometry x="280" y="230" width="20" height="40" as="geometry" />
        </mxCell>
        <mxCell id="gcQWtQWxWVgKkvATZPal-7" value="" style="swimlane;startSize=0;fontSize=8;fontFamily=Times New Roman;spacing=0;" parent="1" vertex="1">
          <mxGeometry x="280" y="170" width="20" height="40" as="geometry" />
        </mxCell>
        <mxCell id="gcQWtQWxWVgKkvATZPal-8" value="" style="swimlane;startSize=0;" parent="1" vertex="1">
          <mxGeometry x="580" y="170" width="20" height="40" as="geometry" />
        </mxCell>
        <mxCell id="gcQWtQWxWVgKkvATZPal-9" value="" style="swimlane;startSize=0;" parent="1" vertex="1">
          <mxGeometry x="680" y="170" width="20" height="40" as="geometry" />
        </mxCell>
        <mxCell id="gcQWtQWxWVgKkvATZPal-10" value="" style="swimlane;startSize=0;" parent="1" vertex="1">
          <mxGeometry x="480" y="170" width="20" height="40" as="geometry" />
        </mxCell>
        <mxCell id="gcQWtQWxWVgKkvATZPal-11" value="" style="swimlane;startSize=0;" parent="1" vertex="1">
          <mxGeometry x="380" y="170" width="20" height="40" as="geometry" />
        </mxCell>
        <mxCell id="gcQWtQWxWVgKkvATZPal-12" value="" style="endArrow=classic;html=1;rounded=0;entryX=0;entryY=0.75;entryDx=0;entryDy=0;exitX=1;exitY=0.75;exitDx=0;exitDy=0;" parent="1" source="gcQWtQWxWVgKkvATZPal-1" target="gcQWtQWxWVgKkvATZPal-2" edge="1">
          <mxGeometry width="50" height="50" relative="1" as="geometry">
            <mxPoint x="200" y="220" as="sourcePoint" />
            <mxPoint x="250" y="170" as="targetPoint" />
          </mxGeometry>
        </mxCell>
        <mxCell id="gcQWtQWxWVgKkvATZPal-13" value="" style="endArrow=classic;html=1;rounded=0;entryX=0;entryY=0.5;entryDx=0;entryDy=0;exitX=1;exitY=0.25;exitDx=0;exitDy=0;" parent="1" source="gcQWtQWxWVgKkvATZPal-2" target="gcQWtQWxWVgKkvATZPal-10" edge="1">
          <mxGeometry width="50" height="50" relative="1" as="geometry">
            <mxPoint x="380" y="184.89000000000001" as="sourcePoint" />
            <mxPoint x="460" y="184.89000000000001" as="targetPoint" />
          </mxGeometry>
        </mxCell>
        <mxCell id="gcQWtQWxWVgKkvATZPal-14" value="" style="endArrow=classic;html=1;rounded=0;entryX=1;entryY=0.5;entryDx=0;entryDy=0;exitX=0;exitY=0.5;exitDx=0;exitDy=0;" parent="1" source="gcQWtQWxWVgKkvATZPal-9" target="gcQWtQWxWVgKkvATZPal-8" edge="1">
          <mxGeometry width="50" height="50" relative="1" as="geometry">
            <mxPoint x="490" y="120" as="sourcePoint" />
            <mxPoint x="570" y="120" as="targetPoint" />
          </mxGeometry>
        </mxCell>
        <mxCell id="gcQWtQWxWVgKkvATZPal-19" value="DataBase" style="shape=datastore;whiteSpace=wrap;html=1;" parent="1" vertex="1">
          <mxGeometry x="510" y="330" width="60" height="60" as="geometry" />
        </mxCell>
        <mxCell id="gcQWtQWxWVgKkvATZPal-20" value="" style="endArrow=classic;startArrow=classic;html=1;rounded=0;exitX=0.5;exitY=0;exitDx=0;exitDy=0;dashed=1;" parent="1" source="gcQWtQWxWVgKkvATZPal-19" edge="1">
          <mxGeometry width="50" height="50" relative="1" as="geometry">
            <mxPoint x="490" y="330" as="sourcePoint" />
            <mxPoint x="540" y="280" as="targetPoint" />
          </mxGeometry>
        </mxCell>
      </root>
    </mxGraphModel>
  </diagram>
</mxfile>
